<svg width="21" height="21" viewBox="0 0 21 21" fill="none" xmlns="http://www.w3.org/2000/svg">
<path fill-rule="evenodd" clip-rule="evenodd" d="M10.5 0C4.70137 0 0 4.70138 0 10.5C0 16.2986 4.70137 21 10.5 21C16.2986 21 21 16.2986 21 10.5C21 4.70138 16.2986 0 10.5 0ZM15.3639 7.59521L10.3344 15.2825C10.3331 15.2838 10.3305 15.2851 10.3305 15.2865C10.3043 15.3258 10.2898 15.3705 10.257 15.4072C10.2111 15.4571 10.152 15.4833 10.0995 15.5214C10.0864 15.5306 10.0733 15.5411 10.0588 15.5503C9.97744 15.6015 9.89344 15.6356 9.80157 15.6579C9.77138 15.6658 9.74381 15.6736 9.71231 15.6789C9.63921 15.689 9.56514 15.6898 9.49181 15.6815C9.44002 15.6782 9.38863 15.6703 9.33825 15.6579C9.28627 15.6422 9.23577 15.622 9.18731 15.5975C9.14531 15.5778 9.10069 15.5726 9.06131 15.5476C9.03244 15.5293 9.01669 15.5004 8.99175 15.4781C8.98125 15.4689 8.96813 15.4663 8.95763 15.4571L6.02944 12.7494C5.65667 12.4051 5.63375 11.8239 5.97813 11.4512C6.32251 11.0786 6.90377 11.0556 7.27643 11.4L9.396 13.361L13.8257 6.58984C14.1033 6.16506 14.6727 6.04577 15.0975 6.3234C15.5223 6.60102 15.6416 7.17043 15.3639 7.59521V7.59521Z" fill="white"/>
</svg>
