<svg width="53" height="64" viewBox="0 0 53 64" fill="none" xmlns="http://www.w3.org/2000/svg">
<path d="M31.2509 56.5001C30.5609 56.5001 30.0009 57.0601 30.0009 57.7501C30.0009 58.4401 30.5609 59.0001 31.2509 59.0001C31.9409 59.0001 32.5009 58.4401 32.5009 57.7501C32.5009 57.0601 31.9409 56.5001 31.2509 56.5001Z" fill="#FB3099"/>
<path d="M48.7504 5.75005H45.0004V3.75003C45.0004 1.68227 43.3181 0 41.2504 0H11.2501C9.18233 0 7.50007 1.68227 7.50007 3.75003V5.75005H3.75003C1.68227 5.75005 0 7.43232 0 9.50009C0 17.6323 3.80528 23.6086 9.97859 25.2725C12.0949 29.9306 15.4409 33.8906 19.6879 36.752C20.6662 37.4111 21.2502 38.5395 21.2502 39.7704V46.6578C20.3933 46.8775 19.6072 47.3231 18.965 47.9653C18.0204 48.9101 17.5002 50.1655 17.5002 51.5005H16.2501C14.1824 51.5005 12.5001 53.1827 12.5001 55.2505V62.7506C12.5001 63.4409 13.0599 64.0006 13.7501 64.0006H38.7504C39.4406 64.0006 40.0004 63.4409 40.0004 62.7506V55.2505C40.0004 53.1827 38.3181 51.5005 36.2503 51.5005H35.0003C35.0003 49.1749 33.4044 47.2151 31.2503 46.6587V39.7766C31.2503 38.5417 31.8347 37.4112 32.8138 36.7521C37.0612 33.8904 40.4072 29.9304 42.5234 25.2721C48.6958 23.6076 52.5005 17.6317 52.5005 9.50009C52.5005 7.43232 50.8182 5.75005 48.7504 5.75005ZM2.50002 9.50009C2.50002 8.81083 3.06078 8.25007 3.75003 8.25007H7.50007V13.8376C7.50007 16.687 7.9317 19.4773 8.78383 22.1644C4.80592 20.1941 2.50002 15.6434 2.50002 9.50009ZM36.2503 54.0005C36.9396 54.0005 37.5003 54.5612 37.5003 55.2505V61.5006H15.0001V55.2505C15.0001 54.5612 15.5609 54.0005 16.2501 54.0005H36.2503ZM42.5004 13.8376C42.5004 17.2522 41.8206 20.5747 40.4796 23.7127C38.5721 28.1774 35.4383 31.9693 31.4173 34.6784C29.7473 35.8026 28.7503 37.7085 28.7503 39.7766V47.7504C28.7503 48.4408 29.31 49.0004 30.0003 49.0004C31.3788 49.0004 32.5003 50.122 32.5003 51.5005H20.0002C20.0002 50.8332 20.2604 50.2056 20.7328 49.7331C21.1821 49.2838 21.7717 49.0266 22.4022 49.0023C22.4346 49.0048 22.4672 49.0061 22.5001 49.0061C23.1903 49.0061 23.7501 48.4408 23.7501 47.7504V39.7704C23.7501 37.7066 22.7537 35.8032 21.0848 34.6787C17.0634 31.9694 13.9296 28.1775 12.0219 23.7125C10.6803 20.5756 10.0001 17.2532 10.0001 13.8376V3.75003C10.0001 3.06078 10.5608 2.50002 11.2501 2.50002H41.2504C41.9396 2.50002 42.5004 3.06078 42.5004 3.75003V13.8376ZM43.7171 22.1642C44.5689 19.4764 45.0004 16.6863 45.0004 13.8376V8.25007H48.7504C49.4397 8.25007 50.0005 8.81083 50.0005 9.50009C50.0005 15.643 47.6948 20.1936 43.7171 22.1642Z" fill="#FB3099"/>
<path d="M36.1428 14.7702C35.996 14.3176 35.6047 13.9877 35.1337 13.9195L29.7391 13.1365L27.3262 8.24705C27.1156 7.8203 26.6811 7.55017 26.2052 7.55017C25.7294 7.55017 25.2949 7.8203 25.0842 8.24705L22.6713 13.1365L17.2769 13.9195C16.8059 13.9879 16.4148 14.3177 16.2676 14.7702C16.1206 15.2229 16.2433 15.7196 16.584 16.0517L20.4883 19.8568L19.5668 25.2302C19.4864 25.6992 19.6792 26.1731 20.0642 26.4528C20.4492 26.7325 20.9596 26.7693 21.3806 26.548L26.2054 24.0113L31.0313 26.548C31.455 26.7707 31.9652 26.7307 32.3477 26.4527C32.7325 26.173 32.9253 25.699 32.8448 25.23L31.9223 19.8567L35.8264 16.0517C36.1673 15.7196 36.2898 15.2229 36.1428 14.7702ZM29.7066 18.525C29.412 18.8123 29.2774 19.2262 29.3471 19.6318L29.9523 23.1564L26.7869 21.4925C26.4225 21.3012 25.9875 21.3012 25.6236 21.4927L22.4592 23.1564L23.0637 19.6315C23.1332 19.2259 22.9987 18.8121 22.7041 18.525L20.1436 16.0295L23.6812 15.516C24.0885 15.4569 24.4405 15.2011 24.6226 14.8321L26.2054 11.6247L27.7881 14.8321C27.9703 15.2011 28.3223 15.4569 28.7295 15.516L32.2673 16.0295L29.7066 18.525Z" fill="#FB3099"/>
<path d="M26.2501 56.5001H21.25C20.5598 56.5001 20 57.0598 20 57.7501C20 58.4405 20.5598 59.0001 21.25 59.0001H26.2501C26.9403 59.0001 27.5001 58.4405 27.5001 57.7501C27.5001 57.0598 26.9403 56.5001 26.2501 56.5001Z" fill="#FB3099"/>
<path d="M45.5017 60.2512H46.1986C45.8436 60.1809 45.6048 60.1739 45.5017 60.2512Z" fill="#FB3099"/>
</svg>
