<svg width="64" height="64" viewBox="0 0 64 64" fill="none" xmlns="http://www.w3.org/2000/svg">
<path d="M42.375 24V24.25H42.625H49.5C50.3974 24.25 51.125 24.9776 51.125 25.875V33.375C51.125 43.2957 43.531 51.4762 33.851 52.4101L33.625 52.4319V52.659V60.25V60.5H33.875H38.5625C39.4599 60.5 40.1875 61.2275 40.1875 62.125C40.1875 63.0224 39.4599 63.75 38.5625 63.75H25.4375C24.5401 63.75 23.8125 63.0224 23.8125 62.125C23.8125 61.2275 24.5401 60.5 25.4375 60.5H30.125H30.375V60.25V52.659V52.4319L30.149 52.4101C20.4689 51.4761 12.875 43.2957 12.875 33.375V25.875C12.875 24.9776 13.6026 24.25 14.5 24.25H21.375H21.625V24V18.375C21.625 12.6544 26.2794 8 32 8C37.7205 8 42.375 12.6544 42.375 18.375V24ZM16.375 27.5H16.125V27.75V33.375C16.125 42.1287 23.2463 49.25 32 49.25C40.7537 49.25 47.875 42.1287 47.875 33.375V27.75V27.5H47.625H42.625H42.375V27.75V33.375C42.375 39.0955 37.7205 43.75 32 43.75C26.2794 43.75 21.625 39.0955 21.625 33.375V27.75V27.5H21.375H16.375ZM32 11.25C28.071 11.25 24.875 14.446 24.875 18.375V33.375C24.875 37.3039 28.071 40.5 32 40.5C35.9289 40.5 39.125 37.3039 39.125 33.375V18.375C39.125 14.446 35.9289 11.25 32 11.25Z" fill="#FB3099" stroke="white" stroke-width="0.5"/>
<path d="M48.75 12.4819C48.75 13.3794 48.0225 14.1069 47.125 14.1069C46.2275 14.1069 45.5 13.3794 45.5 12.4819C45.5 11.5845 46.2275 10.8569 47.125 10.8569C48.0225 10.8569 48.75 11.5845 48.75 12.4819Z" fill="#FB3099" stroke="white" stroke-width="0.5"/>
<path d="M53.5775 6.02853L53.5774 6.02851C52.9431 5.39405 51.9142 5.3939 51.2794 6.02853C51.2794 6.02853 51.2794 6.02854 51.2794 6.02854M53.5775 6.02853L53.7541 19.1099C53.3881 19.476 52.9081 19.6591 52.4284 19.6591C51.9486 19.6591 51.4687 19.4761 51.1026 19.11C50.3704 18.3777 50.3704 17.1906 51.1026 16.4584C53.2957 14.2652 53.2957 10.6965 51.1026 8.50338C50.3704 7.77113 50.3704 6.584 51.1026 5.85175L51.2794 6.02854M53.5775 6.02853C57.1351 9.58627 57.1351 15.3755 53.5773 18.9331L53.5773 18.9331C53.2601 19.2505 52.8445 19.4091 52.4284 19.4091C52.0122 19.4091 51.5967 19.2506 51.2794 18.9332C50.6448 18.2986 50.6448 17.2698 51.2794 16.6351C53.5702 14.3444 53.5702 10.6174 51.2794 8.3266C50.6448 7.69199 50.6448 6.66316 51.2794 6.02854M53.5775 6.02853L51.2794 6.02854" fill="#FB3099" stroke="white" stroke-width="0.5"/>
<path d="M58.8801 0.725949L58.8801 0.725964C62.0205 3.86633 63.7495 8.04036 63.7495 12.4816C63.7495 16.9227 62.0205 21.0968 58.88 24.2373L58.88 24.2373C58.5627 24.5546 58.1472 24.7133 57.731 24.7133C57.3149 24.7133 56.8994 24.5546 56.582 24.2373C55.9474 23.6026 55.9474 22.5737 56.582 21.9392L56.582 21.9392C59.1079 19.4133 60.4995 16.0537 60.4995 12.4816C60.4995 8.90938 59.1079 5.54991 56.582 3.02403C55.9474 2.38942 55.9474 1.36058 56.582 0.725964C57.2167 0.0913371 58.2456 0.0913587 58.8801 0.725949Z" fill="#FB3099" stroke="white" stroke-width="0.5"/>
<path d="M18.5 12.4819C18.5 13.3794 17.7725 14.1069 16.875 14.1069C15.9775 14.1069 15.25 13.3794 15.25 12.4819C15.25 11.5845 15.9775 10.8569 16.875 10.8569C17.7725 10.8569 18.5 11.5845 18.5 12.4819Z" fill="#FB3099" stroke="white" stroke-width="0.5"/>
<path d="M12.7202 18.9341L12.7202 18.9342C12.4029 19.2514 11.9873 19.4101 11.5712 19.4101C11.1551 19.4101 10.7396 19.2514 10.4222 18.934C6.86472 15.3763 6.86472 9.58707 10.4222 6.02935C11.0568 5.39483 12.0858 5.39485 12.7203 6.02934C13.3549 6.66396 13.3549 7.69279 12.7203 8.32741C10.4295 10.6182 10.4295 14.3452 12.7203 16.636C13.3549 17.2706 13.3549 18.2995 12.7202 18.9341Z" fill="#FB3099" stroke="white" stroke-width="0.5"/>
<path d="M7.41748 3.02495L7.41747 3.02496C4.89159 5.55084 3.5 8.91043 3.5 12.4825C3.5 16.0547 4.89159 19.4141 7.41734 21.94L7.59412 21.7632L7.41734 21.94C8.05196 22.5746 8.05196 23.6035 7.41734 24.2381L7.41728 24.2381C7.1001 24.5555 6.68456 24.7141 6.26837 24.7141C5.85224 24.7141 5.43678 24.5555 5.1194 24.2381C1.97903 21.0977 0.25 16.9237 0.25 12.4825C0.25 8.04129 1.97903 3.86726 5.1194 0.726893C5.75415 0.0922645 6.7831 0.092416 7.41745 0.726878L7.41747 0.726893C8.05209 1.36152 8.05207 2.39047 7.41748 3.02495Z" fill="#FB3099" stroke="white" stroke-width="0.5"/>
</svg>
